HIERARCHY
ROOT Hips
{
    OFFSET 0.000000 0.000000 0.000000
    CHANNELS 6 Xposition Yposition Zposition Zrotation Xrotation Yrotation
    JOINT Spine
    {
        OFFSET -0.000000 7.897928 0.000000
        CHANNELS 3 Zrotation Xrotation Yrotation
        JOINT Spine1
        {
            OFFSET -0.000000 22.881742 0.000000
            CHANNELS 3 Zrotation Xrotation Yrotation
            JOINT Neck
            {
                OFFSET -0.000000 22.787771 2.071616
                CHANNELS 3 Zrotation Xrotation Yrotation
                JOINT Head
                {
                    OFFSET -0.000000 13.484266 -1.926324
                    CHANNELS 3 Zrotation Xrotation Yrotation
                    End Site
                    {
                        OFFSET -0.000000 24.079046 0.000000
                    }
                }
            }
            JOINT LeftShoulder
            {
                OFFSET 3.854963 21.096247 -0.110468
                CHANNELS 3 Zrotation Xrotation Yrotation
                JOINT LeftArm
                {
                    OFFSET 10.572188 0.000000 0.000000
                    CHANNELS 3 Zrotation Xrotation Yrotation
                    JOINT LeftForeArm
                    {
                        OFFSET 34.932854 0.000000 0.000000
                        CHANNELS 3 Zrotation Xrotation Yrotation
                        JOINT LeftHand
                        {
                            OFFSET 23.279285 0.000000 0.000000
                            CHANNELS 3 Zrotation Xrotation Yrotation
                            End Site
                            {
                                OFFSET 14.447429 0.000000 0.000000
                            }
                        }
                    }
                }
            }
            JOINT RightShoulder
            {
                OFFSET -3.825334 21.096247 -0.110468
                CHANNELS 3 Zrotation Xrotation Yrotation
                JOINT RightArm
                {
                    OFFSET -10.572188 0.000000 0.000000
                    CHANNELS 3 Zrotation Xrotation Yrotation
                    JOINT RightForeArm
                    {
                        OFFSET -34.932854 0.000000 0.000000
                        CHANNELS 3 Zrotation Xrotation Yrotation
                        JOINT RightHand
                        {
                            OFFSET -23.279285 0.000000 0.000000
                            CHANNELS 3 Zrotation Xrotation Yrotation
                            End Site
                            {
                                OFFSET -14.447429 0.000000 0.000000
                            }
                        }
                    }
                }
            }
        }
    }
    JOINT LeftUpLeg
    {
        OFFSET 9.631618 0.000000 0.000000
        CHANNELS 3 Zrotation Xrotation Yrotation
        JOINT LeftLeg
        {
            OFFSET -0.000000 -35.385456 0.000000
            CHANNELS 3 Zrotation Xrotation Yrotation
            JOINT LeftFoot
            {
                OFFSET -0.000000 -43.284000 0.000000
                CHANNELS 3 Zrotation Xrotation Yrotation
                JOINT LeftToeBase
                {
                    OFFSET -0.000000 -6.260552 14.447429
                    CHANNELS 3 Zrotation Xrotation Yrotation
                    End Site
                    {
                        OFFSET -0.000000 0.000000 3.852648
                    }
                }
            }
        }
    }
    JOINT RightUpLeg
    {
        OFFSET -9.631618 0.000000 0.000000
        CHANNELS 3 Zrotation Xrotation Yrotation
        JOINT RightLeg
        {
            OFFSET -0.000000 -35.385456 0.000000
            CHANNELS 3 Zrotation Xrotation Yrotation
            JOINT RightFoot
            {
                OFFSET -0.000000 -43.284000 0.000000
                CHANNELS 3 Zrotation Xrotation Yrotation
                JOINT RightToeBase
                {
                    OFFSET -0.000000 -6.260552 14.447429
                    CHANNELS 3 Zrotation Xrotation Yrotation
                    End Site
                    {
                        OFFSET -0.000000 0.000000 3.852648
                    }
                }
            }
        }
    }
}
MOTION
Frames:    13
Frame Time:    0.008333
57.978142    88.276581    20.990643    -0.861831    -1.545062    84.101967    1.245434    -4.266436    -1.389374    0.599923    0.671812    -1.439345    -3.314717    13.117530    -7.483744    7.806740    1.245617    -6.667081    20.921860    0.111212    5.191490    -18.016031    7.239826    -6.135713    3.665040    -6.909554    -0.423810    -7.407293    -6.723768    -2.680701    -18.776762    -2.163813    8.065597    15.372653    2.087297    3.133619    -0.763048    -2.513908    0.619129    4.179335    -2.335994    4.765210    7.932072    5.494544    2.887174    -4.699709    5.688685    -1.305685    -3.048384    -9.734642    14.080545    0.000000    0.000000    0.000000    -5.496846    -1.532608    -1.874486    3.692239    11.244788    0.258781    3.366584    -7.200373    -9.752510    0.000000    0.000000    0.000000    
57.982506    88.277481    20.989817    -0.866035    -1.544492    84.102982    1.272284    -4.272688    -1.392898    0.553212    0.684136    -1.443650    -3.330303    13.163872    -7.491288    7.895786    1.142960    -6.657204    20.953157    0.101706    5.219053    -18.016388    7.292363    -6.132725    3.660825    -6.918855    -0.410046    -7.433601    -6.731732    -2.698960    -18.763580    -2.180673    8.052245    15.381353    2.043692    3.142088    -0.749116    -2.497488    0.628803    4.087842    -2.324943    4.721705    7.934398    5.493198    2.876941    -4.709420    5.689606    -1.322614    -3.033952    -9.734714    14.115597    0.000000    0.000000    0.000000    -5.496454    -1.586722    -2.215268    3.620821    11.362677    0.646176    3.365515    -7.225843    -9.805618    0.000000    0.000000    0.000000    
57.987236    88.278763    20.991159    -0.865468    -1.543448    84.107620    1.261648    -4.287268    -1.399811    0.579329    0.724274    -1.450734    -3.357290    13.176368    -7.493800    7.937919    1.054089    -6.647765    20.940620    0.089182    5.238959    -18.006878    7.324869    -6.123104    3.654458    -6.955732    -0.396202    -7.461664    -6.767811    -2.708447    -18.806496    -2.187651    8.031353    15.400191    2.011637    3.155903    -0.743838    -2.497281    0.634569    4.100005    -2.324605    4.710823    7.934769    5.499104    2.871061    -4.707957    5.685611    -1.338278    -3.057258    -9.737853    14.124015    0.000000    0.000000    0.000000    -5.496235    -1.585224    -2.201357    3.622818    11.368599    0.651277    3.363472    -7.229967    -9.829450    0.000000    0.000000    0.000000    
57.991375    88.278358    20.991421    -0.871265    -1.542228    84.107086    1.247155    -4.289761    -1.395922    0.601300    0.720795    -1.446407    -3.377223    13.241302    -7.503240    8.001910    0.954382    -6.643660    20.935194    0.092059    5.229335    -18.008602    7.320161    -6.114421    3.675006    -6.973611    -0.436537    -7.474382    -6.795827    -2.526735    -18.804401    -2.180027    8.019644    15.390282    1.979456    3.149800    -0.751232    -2.493954    0.636612    4.127369    -2.320556    4.698416    7.937150    5.498496    2.863555    -4.716951    5.678676    -1.310209    -3.052420    -9.732491    14.111799    0.000000    0.000000    0.000000    -5.497109    -1.588555    -2.198070    3.621527    11.374454    0.665102    3.380316    -7.241915    -9.843089    0.000000    0.000000    0.000000    
57.995754    88.278076    20.992023    -0.877146    -1.546107    84.106010    1.258433    -4.300242    -1.394129    0.598198    0.739444    -1.445248    -3.400415    13.166873    -7.533147    8.023417    1.069117    -6.676897    20.933453    0.087318    5.246315    -17.993719    7.336948    -6.113053    3.684325    -7.062433    -0.393423    -7.498095    -6.876859    -2.659653    -18.824453    -2.204456    8.012094    15.400188    1.980806    3.133543    -0.747825    -2.493924    0.647076    4.166772    -2.319384    4.683237    7.938516    5.498416    2.874112    -4.708545    5.677693    -1.338454    -3.055351    -9.738464    14.125829    0.000000    0.000000    0.000000    -5.492224    -1.593904    -2.175590    3.624397    11.382249    0.635571    3.359919    -7.240979    -9.830066    0.000000    0.000000    0.000000    
58.000935    88.276505    20.991798    -0.875770    -1.547344    84.111343    1.263829    -4.300770    -1.391441    0.587198    0.746604    -1.442746    -3.429612    13.196402    -7.556253    8.119581    1.019507    -6.684820    20.949888    0.079889    5.238476    -17.998177    7.337306    -6.105656    3.661544    -7.092920    -0.368912    -7.173675    -6.902498    -2.871942    -18.806993    -2.202678    8.006124    15.383519    1.985443    3.116068    -0.745019    -2.491467    0.652804    4.146279    -2.317883    4.680039    7.944081    5.500418    2.863332    -4.716252    5.679368    -1.321182    -3.051490    -9.742161    14.113317    0.000000    0.000000    0.000000    -5.490307    -1.586665    -2.180710    3.620697    11.371057    0.653823    3.380386    -7.242631    -9.845382    0.000000    0.000000    0.000000    
58.003471    88.275734    20.991236    -0.881888    -1.546417    84.118042    1.295599    -4.301108    -1.405030    0.543992    0.734785    -1.457176    -3.437200    13.294836    -7.541867    8.161108    0.874815    -6.657008    20.938065    0.084911    5.258156    -17.970058    7.314661    -6.088613    3.652357    -7.083869    -0.360368    -7.116290    -6.895022    -2.874395    -18.810808    -2.196430    8.050462    15.398772    1.997366    3.092176    -0.745522    -2.490150    0.653011    4.129507    -2.316899    4.689254    7.941269    5.491088    2.860886    -4.711811    5.687868    -1.322124    -3.050741    -9.747179    14.106908    0.000000    0.000000    0.000000    -5.493162    -1.590766    -2.208140    3.622538    11.374296    0.641641    3.370576    -7.246419    -9.815979    0.000000    0.000000    0.000000    
58.009983    88.274521    20.991655    -0.882333    -1.549566    84.113937    1.279441    -4.316057    -1.400210    0.588185    0.763405    -1.452397    -3.522044    13.285501    -7.558883    8.274564    0.875852    -6.656863    20.918297    0.090511    5.251175    -17.972176    7.269688    -6.075976    3.650111    -7.071445    -0.358036    -7.074755    -6.884811    -2.856511    -18.849083    -2.195748    8.040134    15.399619    2.028922    3.088339    -0.737353    -2.491396    0.651955    4.087876    -2.319453    4.702271    7.945171    5.498068    2.874428    -4.712327    5.685578    -1.339043    -3.046251    -9.752850    14.116197    0.000000    0.000000    0.000000    -5.495905    -1.578220    -2.172666    3.634540    11.360240    0.633540    3.372961    -7.246412    -9.833294    0.000000    0.000000    0.000000    
58.012665    88.271988    20.989796    -0.881984    -1.549313    84.117676    1.296767    -4.291145    -1.407086    0.569800    0.714263    -1.459229    -3.532246    13.368730    -7.561050    8.311133    0.788301    -6.650387    20.899124    0.115776    5.250582    -17.950739    7.230405    -6.057786    3.617274    -7.046231    -0.349540    -6.906036    -6.860861    -2.911375    -18.840290    -2.176918    8.078052    15.393157    2.063927    3.062849    -0.753603    -2.477738    0.638784    4.145435    -2.301943    4.742934    7.942762    5.496840    2.868020    -4.707890    5.690496    -1.317303    -3.041111    -9.760259    14.092752    0.000000    0.000000    0.000000    -5.497048    -1.576324    -2.199087    3.632330    11.364242    0.630646    3.361304    -7.250367    -9.816513    0.000000    0.000000    0.000000    
58.014374    88.272575    20.987360    -0.894853    -1.543997    84.116432    1.300524    -4.323293    -1.399705    0.565624    0.772954    -1.452630    -3.529196    13.363848    -7.569044    8.328032    0.706037    -6.650440    20.911121    0.074224    5.282573    -17.944756    7.238926    -6.071595    3.608873    -7.037638    -0.354309    -6.910408    -6.854153    -2.876045    -18.881399    -2.191636    8.034718    15.415561    2.088733    3.075914    -0.755518    -2.489954    0.629446    4.106964    -2.314512    4.779399    7.937135    5.479324    2.863390    -4.711468    5.699687    -1.317040    -3.042820    -9.761749    14.104039    0.000000    0.000000    0.000000    -5.505075    -1.592888    -2.187697    3.637691    11.374354    0.643920    3.348620    -7.260528    -9.838326    0.000000    0.000000    0.000000    
58.017204    88.269600    20.988447    -0.899835    -1.545470    84.121246    1.283900    -4.308263    -1.393425    0.590286    0.735601    -1.445544    -3.518251    13.440763    -7.586804    8.345760    0.612550    -6.662654    20.919901    0.095744    5.249043    -17.958750    7.233598    -6.054486    3.607877    -7.041411    -0.359429    -6.902959    -6.859734    -2.846241    -18.869757    -2.160943    8.027716    15.392595    2.137357    3.061282    -0.772234    -2.508647    0.622630    4.095301    -2.332289    4.817109    7.945317    5.470333    2.871320    -4.715692    5.711067    -1.328151    -3.043633    -9.771631    14.091284    0.000000    0.000000    0.000000    -5.498321    -1.592260    -2.215815    3.624483    11.369783    0.671015    3.381901    -7.267634    -9.835806    0.000000    0.000000    0.000000    
58.021618    88.269302    20.987141    -0.900754    -1.545005    84.120132    1.304810    -4.324201    -1.403784    0.573968    0.776218    -1.456921    -3.585562    13.446724    -7.584901    8.442466    0.550678    -6.641325    20.908468    0.083016    5.294475    -17.938812    7.243133    -6.044293    3.639568    -7.002930    -0.380076    -7.080068    -6.813528    -2.888256    -18.913759    -2.193800    8.041305    15.431727    2.138554    3.054853    -0.767905    -2.513977    0.622506    4.003415    -2.341406    4.819842    7.945868    5.474944    2.878351    -4.717989    5.707743    -1.341731    -3.019108    -9.764865    14.103792    0.000000    0.000000    0.000000    -5.495134    -1.601372    -2.215067    3.612524    11.387310    0.665533    3.379369    -7.277326    -9.827085    0.000000    0.000000    0.000000    
58.024002    88.268875    20.985378    -0.903366    -1.539830    84.122086    1.300251    -4.311420    -1.402213    0.580599    0.760378    -1.455006    -3.600665    13.511671    -7.593503    8.485843    0.432303    -6.637461    20.910254    0.077162    5.300679    -17.939516    7.255309    -6.037176    3.645916    -6.999007    -0.389267    -7.133552    -6.807158    -2.900980    -18.924929    -2.183801    8.024922    15.425619    2.154004    3.055639    -0.755401    -2.502768    0.626631    3.962510    -2.332664    4.799934    7.935362    5.473321    2.885746    -4.711299    5.703081    -1.331826    -3.021565    -9.757742    14.088770    0.000000    0.000000    0.000000    -5.501381    -1.603571    -2.216970    3.614587    11.391326    0.671925    3.384131    -7.279027    -9.839654    0.000000    0.000000    0.000000    
